<svg id="Capa_1" enable-background="new 0 0 512 512" height="512" viewBox="0 0 512 512" width="512" xmlns="http://www.w3.org/2000/svg"><g><path d="m492 318.832 19.298-12.455c-2.685-23.67-13.002-45.682-29.719-62.982-15.556-16.1-35.294-26.726-56.797-30.813.35-3.549.526-7.117.526-10.69 0-59.437-47.979-107.792-106.955-107.792h-211.399c-50.649 0-93.188 35.666-104.189 83.387l17.813 13.161-20.436 16.836c2.897 56.849 49.698 102.201 106.812 102.201h44.401c15.55 0 28.201 12.827 28.201 28.595s-12.651 28.595-28.201 28.595h-29.959c-39.588 0-71.795 32.439-71.795 72.313 0 39.873 32.208 72.313 71.795 72.313h232.117c39.588 0 71.795-32.439 71.795-72.313 0-4.695-.458-9.375-1.355-13.964 43.759-8.019 78.351-42.878 86.316-86.978.112-.619.218-1.24.32-1.863z" fill="#00c8c8"/><path d="m481.579 243.396c-15.556-16.1-35.294-26.726-56.797-30.813.35-3.549.526-7.117.526-10.69 0-59.437-47.979-107.792-106.955-107.792h-64.256v417.4h99.416c39.588 0 71.795-32.439 71.795-72.313 0-4.695-.458-9.375-1.355-13.964 43.759-8.02 78.351-42.878 86.316-86.978.112-.619.218-1.24.32-1.863l-18.589-17.551 19.298-12.455c-2.686-23.669-13.002-45.681-29.719-62.981z" fill="#00a0aa"/><path d="m237.623.5c-25.559 0-47.247 16.998-54.5 40.354-8.652-5.321-18.812-8.392-29.671-8.392-8.284 0-15 6.716-15 15s6.716 15 15 15c14.935 0 27.085 12.322 27.085 27.469v48.285c0 8.284 6.716 15 15 15s15-6.716 15-15v-80.247c0-15.146 12.15-27.469 27.085-27.469 8.284 0 15-6.716 15-15s-6.715-15-14.999-15z" fill="#ffe14d"/><path d="m352.93 327.306c-9.795 0-19.021 2.499-27.085 6.893v-20.921c0-15.146 12.15-27.469 27.085-27.469 8.284 0 15-6.716 15-15s-6.716-15-15-15c-25.558 0-47.247 16.998-54.499 40.354-8.652-5.321-18.812-8.392-29.671-8.392-8.284 0-15 6.716-15 15s6.716 15 15 15c14.935 0 27.085 12.322 27.085 27.469v87.819c0 8.284 6.716 15 15 15s15-6.716 15-15v-48.285c0-15.146 12.15-27.469 27.085-27.469 8.284 0 15-6.716 15-15s-6.716-14.999-15-14.999z" fill="#fb3"/><g><path d="m99.919 192.487c0-8.284-6.716-15-15-15h-82.153c-1.809 7.845-2.766 16.014-2.766 24.405 0 1.877.049 3.742.143 5.596h84.776c8.285-.001 15-6.717 15-15.001z" fill="#00a0aa"/><path d="m210.538 236.52c0-8.284-6.716-15-15-15h-57.118c-8.284 0-15 6.716-15 15s6.716 15 15 15h57.118c8.284 0 15-6.716 15-15z" fill="#00a0aa"/><path d="m325.877 177.487h-57.117c-8.284 0-15 6.716-15 15s6.716 15 15 15h57.118c8.284 0 15-6.716 15-15s-6.716-15-15.001-15z" fill="#008387"/><path d="m239.097 420.144h-32.118c-8.284 0-15 6.716-15 15s6.716 15 15 15h32.118c8.284 0 15-6.716 15-15s-6.716-15-15-15z" fill="#00a0aa"/><path d="m424.882 321.38c0 8.284 6.716 15 15 15h70.68c.93-5.715 1.438-11.572 1.438-17.548 0-4.19-.242-8.346-.708-12.452h-71.41c-8.284 0-15 6.716-15 15z" fill="#008387"/></g></g></svg>